#!OML:ASF E:\Steps\Project 1\Capture day 1\Session 2\Subject.ASF
:FULLY-SPECIFIED
:DEGREES
200
root 16.6547 16.4086 22.2685 -155.018 -16.6319 174.677
lowerback -22.0695 0.0529481 -5.68364
upperback 1.57091 1.64273 -1.13345
thorax 14.1492 0.317983 2.49908
lowerneck -4.96787 1.78594 1.61484
upperneck 16.863 1.46361 1.06835
head 5.92012 0.645354 0.139036
rclavicle 4.29375e-014 -7.97127e-014
rhumerus -31.7544 -20.3999 -77.5895
rradius 27.1063
rwrist 2.56378
rhand -9.76479 -52.6467
rfingers 7.12502
rthumb 16.2101 -81.9889
lclavicle 4.29375e-014 -7.97127e-014
lhumerus -28.0818 2.84834 82.2158
lradius 26.4509
lwrist -1.75362
lhand -22.9513 -15.139
lfingers 7.12502
lthumb 3.49014 14.8122
rfemur -27.0787 3.45263 18.8327
rtibia 14.9783
rfoot -21.0931 -11.4035
rtoes -0.461581
lfemur -48.2586 -13.0177 -22.5696
ltibia 52.1374
lfoot -6.99935 -3.5271
ltoes -44.4855
201
root 16.6537 16.4114 22.2657 -155.251 -17.0141 174.551
lowerback -21.8815 0.0977561 -5.71104
upperback 1.68165 1.70941 -1.13378
thorax 14.1651 0.347366 2.53406
lowerneck -4.98244 1.70936 1.65162
upperneck 16.922 1.34298 1.11648
head 5.94104 0.591963 0.140386
rclavicle 1.77415e-014 6.55989e-015
rhumerus -31.6532 -20.3596 -77.5685
rradius 27.0826
rwrist 2.56601
rhand -9.6905 -52.3764
rfingers 7.12502
rthumb 16.2817 -81.7128
lclavicle 1.77415e-014 6.55989e-015
lhumerus -28.1702 2.84961 82.2282
lradius 26.5029
lwrist -1.72581
lhand -22.9831 -14.742
lfingers 7.12502
lthumb 3.45942 15.2096
rfemur -26.782 3.59159 18.7163
rtibia 15.1615
rfoot -21.3679 -11.8974
rtoes 0.117127
lfemur -48.9521 -12.6371 -22.7961
ltibia 54.6742
lfoot -7.65912 -3.36948
ltoes -42.7372
202
root 16.6527 16.4123 22.2668 -155.605 -17.3963 174.709
lowerback -21.6198 0.217937 -5.45547
upperback 1.7908 1.79172 -1.07401
thorax 14.1392 0.40612 2.48029
lowerneck -4.97975 1.71282 1.63007
upperneck 16.9165 1.32605 1.27406
head 5.93762 0.594454 0.192541
rclavicle -2.19657e-014 -2.16675e-014
rhumerus -31.6607 -20.2442 -77.577
rradius 27.2106
rwrist 2.36015
rhand -9.83009 -52.3766
rfingers 7.12502
rthumb 16.1473 -81.7239
lclavicle -2.19657e-014 -2.16675e-014
lhumerus -28.2216 2.74656 82.2303
lradius 26.4897
lwrist -1.75846
lhand -23.0143 -14.5204
lfingers 7.12502
lthumb 3.42932 15.4318
rfemur -26.3406 3.60972 18.971
rtibia 15.1082
rfoot -21.4866 -12.1579
rtoes 0.0255906
lfemur -49.727 -12.2965 -22.6574
ltibia 57.439
lfoot -8.51072 -3.36407
ltoes -38.6236
203
root 16.6501 16.4219 22.2632 -155.807 -17.5027 174.386
lowerback -21.3989 0.220767 -5.75738
upperback 1.91871 1.87487 -1.10714
thorax 14.1485 0.421897 2.63796
lowerneck -5.00028 1.84328 1.52784
upperneck 16.8176 1.50754 1.40666
head 5.90813 0.689988 0.263396
rclavicle -8.34896e-015 -8.34896e-015
rhumerus -31.5446 -20.0254 -77.6113
rradius 27.337
rwrist 2.3541
rhand -9.72676 -53.334
rfingers 7.12502
rthumb 16.2468 -82.6733
lclavicle -8.34896e-015 -8.34896e-015
lhumerus -28.2126 2.75378 82.2104
lradius 26.3094
lwrist -1.78337
lhand -23.0199 -14.7644
lfingers 7.12502
lthumb 3.42389 15.1879
rfemur -25.896 3.57416 18.6194
rtibia 15.004
rfoot -21.5678 -12.3997
rtoes -0.116859
lfemur -50.5819 -12.0396 -23.0409
ltibia 60.4952
lfoot -9.26046 -3.36119
ltoes -32.6923
204
root 16.6446 16.4179 22.2567 -155.993 -17.6864 174.508
lowerback -21.3139 0.284124 -5.58511
upperback 1.95109 1.90434 -1.0263
thorax 14.1359 0.447226 2.64057
lowerneck -5.0176 1.91771 1.4898
upperneck 16.8584 1.60819 1.43317
head 5.9233 0.73881 0.28499
rclavicle 4.30369e-014 -3.57812e-014
rhumerus -31.4049 -19.88 -77.5607
rradius 27.2685
rwrist 2.66918
rhand -11.4383 -51.8372
rfingers 7.12502
rthumb 14.5983 -81.3035
lclavicle 4.30369e-014 -3.57812e-014
lhumerus -28.3588 3.02329 82.1557
lradius 26.195
lwrist -1.99662
lhand -23.2875 -14.7816
lfingers 7.12502
lthumb 3.16548 15.1746
rfemur -25.6327 3.55672 18.7995
rtibia 14.9422
rfoot -21.5661 -12.5803
rtoes -0.543854
lfemur -51.7422 -11.5349 -22.9231
ltibia 63.4847
lfoot -9.73847 -2.88702
ltoes -30.3601
205
root 16.6418 16.4187 22.2539 -155.773 -17.7058 174.113
lowerback -21.4439 0.262485 -5.99502
upperback 1.90297 1.98773 -1.05428
thorax 14.1376 0.452127 2.87114
lowerneck -4.97783 1.89589 1.45861
upperneck 16.997 1.57284 1.40981
head 5.95986 0.714422 0.280375
rclavicle 4.9398e-014 -6.75868e-015
rhumerus -31.2948 -19.6628 -77.5073
rradius 27.0506
rwrist 2.07268
rhand -10.8396 -52.1706
rfingers 7.12502
rthumb 15.175 -81.5942
lclavicle 4.9398e-014 -6.75868e-015
lhumerus -28.5729 3.20655 82.1975
lradius 26.1864
lwrist -2.22189
lhand -23.5874 -14.674
lfingers 7.12502
lthumb 2.87578 15.2863
rfemur -25.7113 3.42808 18.3721
rtibia 14.9587
rfoot -21.5679 -12.8123
rtoes -1.15756
lfemur -52.82 -11.1204 -23.3293
ltibia 65.7662
lfoot -10.0507 -2.07887
ltoes -33.1674
206
root 16.6369 16.4206 22.2476 -155.83 -17.8052 173.961
lowerback -21.522 0.271553 -6.14024
upperback 1.98326 2.0451 -1.00265
thorax 14.2674 0.459194 3.0344
lowerneck -4.99736 1.87396 1.47694
upperneck 17.1351 1.56035 1.23542
head 6.00829 0.695243 0.222042
rclavicle 3.30976e-014 -4.37326e-015
rhumerus -31.1442 -19.7708 -77.335
rradius 27.0861
rwrist 2.22963
rhand -9.80956 -52.9226
rfingers 7.12502
rthumb 16.167 -82.2684
lclavicle 3.30976e-014 -4.37326e-015
lhumerus -28.6402 3.37839 82.2284
lradius 26.0987
lwrist -2.21612
lhand -23.4623 -14.6502
lfingers 7.12502
lthumb 2.99666 15.3085
rfemur -25.4607 3.52367 18.192
rtibia 14.8145
rfoot -21.5018 -13.0061
rtoes -0.260946
lfemur -53.5759 -10.7615 -23.4042
ltibia 67.9199
lfoot -10.4412 -1.46732
ltoes -36.7063
207
root 16.6364 16.4272 22.2444 -156.099 -18.1735 173.977
lowerback -21.2682 0.26609 -6.03736
upperback 2.05433 1.9937 -0.940954
thorax 14.2085 0.44534 3.02443
lowerneck -4.99285 1.90818 1.54177
upperneck 17.2946 1.61604 1.06448
head 6.06004 0.710944 0.161295
rclavicle 6.77856e-014 -1.98785e-015
rhumerus -31.1127 -20.0083 -77.2632
rradius 27.2376
rwrist 2.463
rhand -9.87107 -53.4085
rfingers 7.12502
rthumb 16.1078 -82.7591
lclavicle 6.77856e-014 -1.98785e-015
lhumerus -28.8156 3.73083 82.0838
lradius 26.0341
lwrist -2.36659
lhand -23.4268 -14.6422
lfingers 7.12502
lthumb 3.03095 15.316
rfemur -25.022 3.55262 18.2858
rtibia 14.6803
rfoot -21.44 -13.4494
rtoes -0.423365
lfemur -54.3091 -10.585 -23.123
ltibia 70.2994
lfoot -10.9022 -1.02522
ltoes -33.5543
208
root 16.6293 16.4325 22.2393 -156.509 -18.473 174.199
lowerback -20.9642 0.357084 -5.62941
upperback 2.11682 1.99121 -0.89154
thorax 14.1133 0.480589 2.84149
lowerneck -4.87021 1.95732 1.49917
upperneck 17.3559 1.66287 1.16003
head 6.05694 0.733868 0.200528
rclavicle 9.93923e-016 1.35174e-014
rhumerus -31.1548 -20.0246 -77.3383
rradius 27.4315
rwrist 2.2765
rhand -9.58896 -54.1451
rfingers 7.12502
rthumb 16.3794 -83.4735
lclavicle 9.93923e-016 1.35174e-014
lhumerus -29.1108 3.90153 81.9401
lradius 25.9665
lwrist -2.55388
lhand -23.6157 -14.751
lfingers 7.12502
lthumb 2.84853 15.2097
rfemur -24.5483 3.38678 18.6146
rtibia 14.6039
rfoot -21.5124 -13.5273
rtoes -1.46943
lfemur -54.9891 -10.2482 -22.7204
ltibia 72.5086
lfoot -11.2583 -0.0421481
ltoes -35.7235
